<svg width="30" height="31" viewBox="0 0 30 31" fill="none" xmlns="http://www.w3.org/2000/svg">
<path d="M26.6309 5.66309C26.4355 5.4873 26.2256 5.35059 26.001 5.25293C25.7764 5.15527 25.5469 5.10645 25.3125 5.10645H8.4375C8.20312 5.10645 7.97363 5.15527 7.74902 5.25293C7.52441 5.35059 7.31445 5.4873 7.11914 5.66309C6.94336 5.8584 6.80664 6.06836 6.70898 6.29297C6.61133 6.51758 6.5625 6.74707 6.5625 6.98145V8.85645H4.6875C4.17969 8.85645 3.74023 9.04199 3.36914 9.41309C2.99805 9.78418 2.8125 10.2236 2.8125 10.7314V13.5439V23.8564C2.8125 24.3838 2.99805 24.8281 3.36914 25.1895C3.74023 25.5508 4.17969 25.7314 4.6875 25.7314H21.5625C22.0703 25.7314 22.5098 25.5508 22.8809 25.1895C23.252 24.8281 23.4375 24.3838 23.4375 23.8564V21.9814H25.3125C25.5469 21.9814 25.7764 21.9375 26.001 21.8496C26.2256 21.7617 26.4355 21.6201 26.6309 21.4248C26.8066 21.2295 26.9434 21.0195 27.041 20.7949C27.1387 20.5703 27.1875 20.3408 27.1875 20.1064V6.98145C27.1875 6.74707 27.1387 6.51758 27.041 6.29297C26.9434 6.06836 26.8066 5.8584 26.6309 5.66309ZM21.5625 10.7314V12.6064H4.6875V10.7314H21.5625ZM21.5625 23.8564H4.6875V14.4814H21.5625V23.8564ZM25.3125 20.1064H23.4375V10.7314C23.4375 10.2236 23.252 9.78418 22.8809 9.41309C22.5098 9.04199 22.0703 8.85645 21.5625 8.85645H8.4375V6.98145H25.3125V20.1064Z" fill="white"/>
</svg>
