<svg width="30" height="31" viewBox="0 0 30 31" fill="none" xmlns="http://www.w3.org/2000/svg">
<path d="M15 3.23145C13.3203 3.23145 11.7383 3.55371 10.2539 4.19824C8.76953 4.82324 7.47559 5.6875 6.37207 6.79102C5.26855 7.89453 4.4043 9.18848 3.7793 10.6729C3.13477 12.1572 2.8125 13.7393 2.8125 15.4189C2.8125 17.1182 3.13477 18.7002 3.7793 20.165C4.4043 21.6494 5.26855 22.9434 6.37207 24.0469C7.47559 25.1504 8.76953 26.0244 10.2539 26.6689C11.7383 27.2939 13.3203 27.6064 15 27.6064C16.6797 27.6064 18.2617 27.2939 19.7461 26.6689C21.2305 26.0244 22.5244 25.1504 23.6279 24.0469C24.7314 22.9434 25.5957 21.6494 26.2207 20.165C26.8652 18.7002 27.1875 17.1182 27.1875 15.4189C27.1875 13.7393 26.8652 12.1572 26.2207 10.6729C25.5957 9.18848 24.7314 7.89453 23.6279 6.79102C22.5244 5.6875 21.2305 4.82324 19.7461 4.19824C18.2617 3.55371 16.6797 3.23145 15 3.23145ZM15 25.7314C13.5742 25.7314 12.2363 25.4678 10.9863 24.9404C9.73633 24.3936 8.64258 23.6562 7.70508 22.7285C6.76758 21.8008 6.03516 20.7119 5.50781 19.4619C4.96094 18.1924 4.6875 16.8447 4.6875 15.4189C4.6875 13.9932 4.96094 12.6553 5.50781 11.4053C6.03516 10.1553 6.7627 9.06152 7.69043 8.12402C8.61816 7.18652 9.7168 6.4541 10.9863 5.92676C12.2363 5.37988 13.5742 5.10645 15 5.10645C16.4258 5.10645 17.7637 5.37988 19.0137 5.92676C20.2637 6.4541 21.3574 7.18652 22.2949 8.12402C23.2324 9.06152 23.9648 10.1553 24.4922 11.4053C25.0391 12.6553 25.3125 13.9932 25.3125 15.4189C25.3125 16.8447 25.0391 18.1924 24.4922 19.4619C23.9648 20.7119 23.2373 21.8008 22.3096 22.7285C21.3818 23.6562 20.2832 24.3936 19.0137 24.9404C17.7637 25.4678 16.4258 25.7314 15 25.7314ZM16.4062 14.4814H13.5938C13.3984 14.4814 13.2129 14.4424 13.0371 14.3643C12.8613 14.2861 12.7051 14.1982 12.5684 14.1006C12.4316 13.9639 12.334 13.8076 12.2754 13.6318C12.2168 13.4561 12.1875 13.2705 12.1875 13.0752C12.1875 12.8994 12.2266 12.7188 12.3047 12.5332C12.3828 12.3477 12.4707 12.1865 12.5684 12.0498C12.7051 11.9131 12.8613 11.8154 13.0371 11.7568C13.2129 11.6982 13.3984 11.6689 13.5938 11.6689H17.8125C18.0859 11.6689 18.3105 11.5859 18.4863 11.4199C18.6621 11.2539 18.75 11.0244 18.75 10.7314C18.75 10.458 18.6621 10.2334 18.4863 10.0576C18.3105 9.88184 18.0859 9.79395 17.8125 9.79395H15.9375V8.85645C15.9375 8.58301 15.8496 8.3584 15.6738 8.18262C15.498 8.00684 15.2734 7.91895 15 7.91895C14.7266 7.91895 14.502 8.00684 14.3262 8.18262C14.1504 8.3584 14.0625 8.58301 14.0625 8.85645V9.79395H13.5938C13.1641 9.79395 12.749 9.88184 12.3486 10.0576C11.9482 10.2334 11.582 10.458 11.25 10.7314C10.918 11.0635 10.6787 11.4199 10.5322 11.8008C10.3857 12.1816 10.3125 12.6064 10.3125 13.0752C10.3125 13.5049 10.4004 13.9199 10.5762 14.3203C10.752 14.7207 10.9766 15.0869 11.25 15.4189C11.582 15.751 11.9385 15.9902 12.3193 16.1367C12.7002 16.2832 13.125 16.3564 13.5938 16.3564H16.4062C16.6016 16.3564 16.7871 16.3955 16.9629 16.4736C17.1387 16.5518 17.2949 16.6396 17.4316 16.7373C17.5684 16.874 17.666 17.0352 17.7246 17.2207C17.7832 17.4062 17.8125 17.5869 17.8125 17.7627C17.8125 17.958 17.7734 18.1436 17.6953 18.3193C17.6172 18.4951 17.5293 18.6514 17.4316 18.7881C17.334 18.9443 17.1875 19.0469 16.9922 19.0957C16.7969 19.1445 16.6016 19.1689 16.4062 19.1689H12.1875C11.9141 19.1689 11.6895 19.2568 11.5137 19.4326C11.3379 19.6084 11.25 19.833 11.25 20.1064C11.25 20.3994 11.3379 20.6289 11.5137 20.7949C11.6895 20.9609 11.9141 21.0439 12.1875 21.0439H14.0625V21.9814C14.0625 22.2744 14.1504 22.5039 14.3262 22.6699C14.502 22.8359 14.7266 22.9189 15 22.9189C15.2734 22.9189 15.498 22.8359 15.6738 22.6699C15.8496 22.5039 15.9375 22.2744 15.9375 21.9814V21.0439H16.4062C16.8359 21.0439 17.251 20.9609 17.6514 20.7949C18.0518 20.6289 18.418 20.3994 18.75 20.1064C19.082 19.833 19.3213 19.4912 19.4678 19.0811C19.6143 18.6709 19.6875 18.2314 19.6875 17.7627C19.6875 17.2939 19.5996 16.8691 19.4238 16.4883C19.248 16.1074 19.0234 15.751 18.75 15.4189C18.418 15.1455 18.0518 14.9209 17.6514 14.7451C17.251 14.5693 16.8359 14.4814 16.4062 14.4814Z" fill="#E4753D"/>
</svg>
