<svg width="30" height="31" viewBox="0 0 30 31" fill="none" xmlns="http://www.w3.org/2000/svg">
<path d="M27.9492 13.0752C27.8906 12.8018 27.7783 12.5527 27.6123 12.3281C27.4463 12.1035 27.2461 11.9131 27.0117 11.7568L24.5508 10.4678C24.4727 10.3115 24.3994 10.165 24.3311 10.0283C24.2627 9.8916 24.1797 9.75488 24.082 9.61816V6.89355C24.082 6.62012 24.0332 6.34668 23.9355 6.07324C23.8379 5.7998 23.6719 5.5752 23.4375 5.39941C22.832 4.87207 22.1973 4.41797 21.5332 4.03711C20.8691 3.65625 20.1562 3.3291 19.3945 3.05566C19.1211 2.95801 18.8477 2.92871 18.5742 2.96777C18.3008 3.00684 18.0469 3.09473 17.8125 3.23145L15.4688 4.6377C15.2734 4.6377 15.0977 4.6377 14.9414 4.6377C14.7852 4.6377 14.6191 4.6377 14.4434 4.6377L12.1875 3.23145C11.9531 3.09473 11.6992 3.00684 11.4258 2.96777C11.1523 2.92871 10.8789 2.95801 10.6055 3.05566C9.84375 3.3291 9.13086 3.65625 8.4668 4.03711C7.80273 4.41797 7.16797 4.87207 6.5625 5.39941C6.32812 5.5752 6.16211 5.7998 6.06445 6.07324C5.9668 6.34668 5.91797 6.62012 5.91797 6.89355V9.61816C5.82031 9.75488 5.72754 9.8916 5.63965 10.0283C5.55176 10.165 5.48828 10.3115 5.44922 10.4678L2.98828 11.7568C2.75391 11.9131 2.55371 12.1035 2.3877 12.3281C2.22168 12.5527 2.10938 12.8018 2.05078 13.0752C1.91406 13.8369 1.8457 14.6084 1.8457 15.3896C1.8457 16.1709 1.91406 16.9326 2.05078 17.6748C2.10938 17.9482 2.22168 18.2021 2.3877 18.4365C2.55371 18.6709 2.75391 18.8564 2.98828 18.9932L5.44922 20.3115C5.52734 20.4482 5.60059 20.585 5.66895 20.7217C5.7373 20.8584 5.82031 20.9951 5.91797 21.1318V23.8564C5.91797 24.1494 5.9668 24.4277 6.06445 24.6914C6.16211 24.9551 6.32812 25.1748 6.5625 25.3506C7.16797 25.8779 7.80273 26.332 8.4668 26.7129C9.13086 27.0938 9.84375 27.4209 10.6055 27.6943C10.8789 27.792 11.1523 27.8213 11.4258 27.7822C11.6992 27.7432 11.9531 27.6553 12.1875 27.5186L14.5312 26.1123C14.7266 26.1123 14.9023 26.1123 15.0586 26.1123C15.2148 26.1123 15.3809 26.1123 15.5566 26.1123L17.8125 27.6064C17.9492 27.7041 18.1055 27.7773 18.2812 27.8262C18.457 27.875 18.6133 27.8994 18.75 27.8994C18.8477 27.8994 18.96 27.8945 19.0869 27.8848C19.2139 27.875 19.3164 27.8506 19.3945 27.8115C20.0977 27.5186 20.7959 27.1816 21.4893 26.8008C22.1826 26.4199 22.832 25.9756 23.4375 25.4678C23.6719 25.2725 23.8379 25.043 23.9355 24.7793C24.0332 24.5156 24.082 24.2373 24.082 23.9443V21.249C24.1797 21.0928 24.2725 20.9463 24.3604 20.8096C24.4482 20.6729 24.5117 20.5361 24.5508 20.3994L27.0117 19.0811C27.2461 18.9443 27.4463 18.7637 27.6123 18.5391C27.7783 18.3145 27.8906 18.0557 27.9492 17.7627C28.0859 16.9619 28.1543 16.1807 28.1543 15.4189C28.1543 14.6572 28.0859 13.876 27.9492 13.0752ZM26.0742 17.3818L23.4375 18.9053C23.3398 18.9443 23.2666 19.0029 23.2178 19.0811C23.1689 19.1592 23.1152 19.2178 23.0566 19.2568C22.959 19.4521 22.8613 19.6426 22.7637 19.8281C22.666 20.0137 22.5488 20.2041 22.4121 20.3994C22.3535 20.4971 22.3047 20.5898 22.2656 20.6777C22.2266 20.7656 22.207 20.8584 22.207 20.9561V24.0615C21.6992 24.4717 21.1621 24.8428 20.5957 25.1748C20.0293 25.5068 19.4434 25.79 18.8379 26.0244L16.2305 24.4131C16.1328 24.374 16.0352 24.3398 15.9375 24.3105C15.8398 24.2812 15.7422 24.2861 15.6445 24.3252C15.4102 24.3252 15.1807 24.3252 14.9561 24.3252C14.7314 24.3252 14.5312 24.3252 14.3555 24.3252C14.2578 24.3252 14.1602 24.3301 14.0625 24.3398C13.9648 24.3496 13.8672 24.374 13.7695 24.4131L11.1621 26.0244C10.5566 25.79 9.96094 25.5068 9.375 25.1748C8.78906 24.8428 8.26172 24.4717 7.79297 24.0615L7.88086 21.0439C7.88086 20.9463 7.86133 20.8535 7.82227 20.7656C7.7832 20.6777 7.73438 20.585 7.67578 20.4873C7.53906 20.292 7.42188 20.1016 7.32422 19.916C7.22656 19.7305 7.12891 19.5498 7.03125 19.374C6.99219 19.2764 6.94336 19.1982 6.88477 19.1396C6.82617 19.0811 6.74805 19.0322 6.65039 18.9932L4.04297 17.499C3.94531 16.835 3.89648 16.1758 3.89648 15.5215C3.89648 14.8672 3.94531 14.208 4.04297 13.5439L6.5625 11.9619C6.66016 11.9033 6.7334 11.835 6.78223 11.7568C6.83105 11.6787 6.88477 11.6201 6.94336 11.5811C7.04102 11.3857 7.13867 11.1953 7.23633 11.0098C7.33398 10.8242 7.45117 10.6436 7.58789 10.4678C7.64648 10.3701 7.69531 10.2725 7.73438 10.1748C7.77344 10.0771 7.79297 9.97949 7.79297 9.88184V6.80566C8.30078 6.37598 8.83789 6 9.4043 5.67773C9.9707 5.35547 10.5566 5.07715 11.1621 4.84277L13.7695 6.4248C13.8672 6.46387 13.9648 6.50293 14.0625 6.54199C14.1602 6.58105 14.2578 6.57129 14.3555 6.5127C14.5898 6.5127 14.8193 6.5127 15.0439 6.5127C15.2686 6.5127 15.4688 6.5127 15.6445 6.5127C15.7422 6.5127 15.8398 6.50781 15.9375 6.49805C16.0352 6.48828 16.1328 6.46387 16.2305 6.4248L18.8379 4.84277C19.4434 5.07715 20.0391 5.35547 20.625 5.67773C21.2109 6 21.7383 6.37598 22.207 6.80566L22.1191 9.79395C22.1191 9.8916 22.1387 9.98926 22.1777 10.0869C22.2168 10.1846 22.2656 10.2725 22.3242 10.3506C22.4609 10.5459 22.5781 10.7363 22.6758 10.9219C22.7734 11.1074 22.8711 11.2979 22.9688 11.4932C23.0078 11.5908 23.0566 11.6641 23.1152 11.7129C23.1738 11.7617 23.252 11.8154 23.3496 11.874L25.957 13.3682C26.1523 14.0713 26.2549 14.7549 26.2646 15.4189C26.2744 16.083 26.2109 16.7373 26.0742 17.3818ZM15 8.85645C14.082 8.85645 13.2227 9.03223 12.4219 9.38379C11.6406 9.71582 10.9521 10.1797 10.3564 10.7754C9.76074 11.3711 9.28711 12.0693 8.93555 12.8701C8.60352 13.6514 8.4375 14.501 8.4375 15.4189C8.4375 16.3369 8.60352 17.1963 8.93555 17.9971C9.28711 18.7979 9.75586 19.4912 10.3418 20.0771C10.9277 20.6631 11.6211 21.1318 12.4219 21.4834C13.2227 21.8154 14.082 21.9814 15 21.9814C15.918 21.9814 16.7773 21.8154 17.5781 21.4834C18.3594 21.1318 19.0479 20.6631 19.6436 20.0771C20.2393 19.4912 20.7129 18.7979 21.0645 17.9971C21.3965 17.1963 21.5625 16.3369 21.5625 15.4189C21.5625 14.501 21.3965 13.6514 21.0645 12.8701C20.7129 12.0693 20.2441 11.3711 19.6582 10.7754C19.0723 10.1797 18.3789 9.71582 17.5781 9.38379C16.7773 9.03223 15.918 8.85645 15 8.85645ZM15 20.1064C13.6914 20.1064 12.583 19.6523 11.6748 18.7441C10.7666 17.8359 10.3125 16.7275 10.3125 15.4189C10.3125 14.1104 10.7666 13.002 11.6748 12.0938C12.583 11.1855 13.6914 10.7314 15 10.7314C16.3086 10.7314 17.417 11.1855 18.3252 12.0938C19.2334 13.002 19.6875 14.1104 19.6875 15.4189C19.6875 16.7275 19.2334 17.8359 18.3252 18.7441C17.417 19.6523 16.3086 20.1064 15 20.1064Z" fill="white"/>
</svg>
