<svg width="30" height="31" viewBox="0 0 30 31" fill="none" xmlns="http://www.w3.org/2000/svg">
<path d="M25.6055 9.41309C25.6055 9.37402 25.5859 9.34961 25.5469 9.33984C25.5078 9.33008 25.4883 9.3252 25.4883 9.3252C24.9609 8.40723 24.3262 7.57715 23.584 6.83496C22.8418 6.09277 22.0215 5.45312 21.123 4.91602C20.2246 4.37891 19.2578 3.96387 18.2227 3.6709C17.207 3.37793 16.1328 3.23145 15 3.23145C13.3203 3.23145 11.7383 3.55371 10.2539 4.19824C8.76953 4.82324 7.47559 5.6875 6.37207 6.79102C5.26855 7.89453 4.4043 9.18848 3.7793 10.6729C3.13477 12.1572 2.8125 13.7393 2.8125 15.4189C2.8125 16.4932 2.94922 17.5381 3.22266 18.5537C3.49609 19.5693 3.88672 20.5264 4.39453 21.4248C4.39453 21.4248 4.39453 21.4297 4.39453 21.4395C4.39453 21.4492 4.39453 21.4736 4.39453 21.5127C4.39453 21.5127 4.41406 21.5273 4.45312 21.5566C4.49219 21.5859 4.51172 21.6006 4.51172 21.6006C5.03906 22.499 5.67383 23.3193 6.41602 24.0615C7.1582 24.7842 7.97852 25.4092 8.87695 25.9365C9.77539 26.4639 10.7422 26.874 11.7773 27.167C12.793 27.46 13.8672 27.6064 15 27.6064C16.6797 27.6064 18.2617 27.2939 19.7461 26.6689C21.2305 26.0244 22.5244 25.1504 23.6279 24.0469C24.7314 22.9434 25.5957 21.6494 26.2207 20.165C26.8652 18.7002 27.1875 17.1182 27.1875 15.4189C27.1875 14.3447 27.0508 13.2998 26.7773 12.2842C26.5039 11.2686 26.1133 10.3115 25.6055 9.41309ZM23.4375 9.53027L15.9375 13.8369V5.19434C17.4805 5.29199 18.9062 5.73145 20.2148 6.5127C21.5234 7.29395 22.5977 8.2998 23.4375 9.53027ZM14.0625 5.19434V14.9502L5.625 19.8428C5.29297 19.1787 5.05371 18.4805 4.90723 17.748C4.76074 17.0156 4.6875 16.2686 4.6875 15.5068C4.6875 14.1592 4.93164 12.8799 5.41992 11.6689C5.9082 10.4775 6.57227 9.42285 7.41211 8.50488C8.25195 7.58691 9.23828 6.83496 10.3711 6.24902C11.5234 5.66309 12.7539 5.31152 14.0625 5.19434ZM15 25.7314C14.1406 25.7314 13.3008 25.6338 12.4805 25.4385C11.6797 25.2236 10.918 24.9258 10.1953 24.5449C9.47266 24.1641 8.79883 23.7002 8.17383 23.1533C7.56836 22.626 7.03125 22.0205 6.5625 21.3369L24.375 11.1123C24.707 11.7764 24.9463 12.4746 25.0928 13.207C25.2393 13.9395 25.3125 14.6768 25.3125 15.4189C25.3125 16.8447 25.0391 18.1924 24.4922 19.4619C23.9648 20.7119 23.2373 21.8008 22.3096 22.7285C21.3818 23.6562 20.2832 24.3936 19.0137 24.9404C17.7637 25.4678 16.4258 25.7314 15 25.7314Z" fill="white"/>
</svg>
